# xmcd
#
# Track frame offsets:
#	150
#	18355
#	40482
#	59787
#	83182
#	95912
#	112455
#	135702
#	159982
#	173880
#	193612
#	211877
#	235950
#	253202
#	270352
#
# Disc length: 4291 seconds
#
# Revision: 5
# Processed by: cddbd v1.5.2PL0 Copyright (c) Steve Scherf et al.
# Submitted via: EasyCDDAExtractor 2011.0.0.0
#
DISCID=e010c10f
DTITLE=Harry Belafonte - Belafonte at Carnegie Hall
DYEAR=1959
DGENRE=Vocal
TTITLE0=Introduction/Darlin' Cora
TTITLE1=Sylvie
TTITLE2=Cotton Fields
TTITLE3=John Henry
TTITLE4=The Marching Saints
TTITLE5=Day-O
TTITLE6=Jamaica Farewell
TTITLE7=Mama Look a Boo Boo
TTITLE8=Come Back Liza
TTITLE9=Man Smart (Woman Smarter)
TTITLE10=Hava Nageela
TTITLE11=Danny Boy
TTITLE12=Cu Cu Ru Cu Cu Paloma
TTITLE13=Shenandoah
TTITLE14=Matilda
EXTD=Record Label:\\tRCA/BMG Music\nCatalog Number:\\t6006-2-R\nRecording Date
EXTD=s:\\tApril 19-20, 1959\nOriginal Release:\\t1959\nCD Reissue:\\t1989\n\nH
EXTD=arry Belafonte:\\tVocals\nBob Corman:\\tOrchestra Conductor\n\nFeatured M
EXTD=usicians:\nMillard Thomas:\\tGuitar\nRaphael Boguslav:\\tGuitar\nDanny Ba
EXTD=rrajanos:\\tBongos and Conga - Vocal Solo on "Matilda"\nNorm Keenan:\\tBass 
EXTD=on "Cotton Fields" and "The Marching Saints"
EXTT0=
EXTT1=
EXTT2=
EXTT3=
EXTT4=
EXTT5=
EXTT6=
EXTT7=
EXTT8=
EXTT9=
EXTT10=
EXTT11=
EXTT12=
EXTT13=
EXTT14=
PLAYORDER=
